Jump_normalized_pl04_filtered_grf
version=1
nRows=12
nColumns=37
inDegrees=yes
endheader
time		1_ground_force_vx		1_ground_force_vy		1_ground_force_vz		1_ground_force_px		1_ground_force_py		1_ground_force_pz		1_ground_torque_x		1_ground_torque_y		1_ground_torque_z		2_ground_force_vx		2_ground_force_vy		2_ground_force_vz		2_ground_force_px		2_ground_force_py		2_ground_force_pz		2_ground_torque_x		2_ground_torque_y		2_ground_torque_z		3_ground_force_vx		3_ground_force_vy		3_ground_force_vz		3_ground_force_px		3_ground_force_py		3_ground_force_pz		3_ground_torque_x		3_ground_torque_y		3_ground_torque_z		4_ground_force_vx		4_ground_force_vy		4_ground_force_vz		4_ground_force_px		4_ground_force_py		4_ground_force_pz		4_ground_torque_x		4_ground_torque_y		4_ground_torque_z		
0.147833		0.000000		-0.000000		-0.000000		0.132236		0.000000		0.267992		-0.000000		-0.000000		0.000000		-0.000000		-0.000000		0.000000		-0.141844		0.000000		0.275422		-0.000000		0.000000		-0.000000		23.412744		8.067478		9.521537		0.374497		1.309669		1.917597		-0.350875		-0.121402		-0.143560		-1.547987		267.092983		460.659111		-0.265824		1.309884		1.926006		3.185968		-51.674145		58.576310		
0.150005		0.000000		-0.000000		-0.000000		0.132236		0.000000		0.267992		-0.000000		-0.000000		0.000000		-0.000000		-0.000000		-0.000000		-0.141844		0.000000		0.275422		-0.000000		0.000000		-0.000000		23.237653		4.547836		3.541403		0.374485		1.309689		1.917607		-0.166169		-0.032528		-0.025335		-2.228032		262.650167		460.147953		-0.265832		1.309903		1.925864		3.153668		-51.779000		58.103798		
0.152177		0.000000		-0.000000		-0.000000		0.132236		0.000000		0.267992		-0.000000		-0.000000		0.000000		-0.000000		-0.000000		-0.000000		-0.141844		0.000000		0.275422		-0.000000		0.000000		-0.000000		22.999791		2.055187		-0.453707		0.374473		1.309706		1.917603		-0.105779		-0.009467		0.002063		-2.948367		258.360963		459.413726		-0.265844		1.309914		1.925732		3.115840		-51.850066		57.626532		
0.154348		0.000000		-0.000000		-0.000000		0.132236		0.000000		0.267992		-0.000000		-0.000000		0.000000		-0.000000		-0.000000		-0.000000		-0.141844		0.000000		0.275422		-0.000000		0.000000		-0.000000		22.726209		0.459262		-2.723417		0.374461		1.309715		1.917585		-0.106058		-0.002137		0.012718		-3.684660		254.170700		458.436367		-0.265858		1.309920		1.925613		3.072856		-51.887525		57.136625		
0.156520		0.000000		-0.000000		-0.000000		0.132236		0.000000		0.267992		-0.000000		-0.000000		0.000000		0.000000		-0.000000		-0.000000		-0.141844		0.000000		0.275422		-0.000000		0.000000		-0.000000		22.439934		-0.387078		-3.592445		0.374445		1.309713		1.917550		-0.114169		0.001970		0.018277		-4.410291		250.021497		457.190806		-0.265874		1.309921		1.925507		3.024926		-51.890753		56.626053		
0.158692		0.000000		-0.000000		-0.000000		0.132236		0.000000		0.267992		-0.000000		-0.000000		0.000000		0.000000		-0.000000		-0.000000		-0.141844		0.000000		0.275422		-0.000000		0.000000		-0.000000		22.161445		-0.650554		-3.434304		0.374422		1.309698		1.917498		-0.114446		0.003359		0.017736		-5.098353		245.857681		455.651637		-0.265891		1.309916		1.925415		2.972036		-51.858520		56.087406		
0.160864		-0.000000		-0.000000		-0.000000		0.132236		0.000000		0.267992		-0.000000		-0.000000		0.000000		0.000000		-0.000000		-0.000000		-0.141844		0.000000		0.275422		-0.000000		0.000000		-0.000000		21.908565		-0.519047		-2.651767		0.374391		1.309672		1.917431		-0.110065		0.002608		0.013324		-5.728516		241.636998		453.809806		-0.265907		1.309907		1.925337		2.913972		-51.790418		55.516226		
0.163035		-0.000000		0.000000		0.000000		0.132236		0.000000		0.267992		0.000000		0.000000		-0.000000		0.000000		0.000000		-0.000000		-0.141844		0.000000		0.275422		0.000000		-0.000000		0.000000		21.697706		-0.154739		-1.581960		0.374350		1.309637		1.917353		-0.107037		0.000764		0.007804		-6.288253		237.336950		451.660088		-0.265921		1.309895		1.925271		2.627817		-47.228230		52.571844		
0.165207		-0.000000		0.000000		0.000000		0.132236		0.000000		0.267992		0.000000		0.000000		-0.000000		0.000000		0.000000		0.000000		-0.141844		0.000000		0.275422		0.000000		-0.000000		0.000000		21.544638		0.305347		-0.494017		0.374302		1.309599		1.917267		-0.107968		-0.001531		0.002474		-6.774901		232.956249		449.204571		-0.265932		1.309880		1.925215		-0.326787		11.236603		21.667314		
0.167379		-0.000000		0.000000		0.000000		0.132236		0.000000		0.267992		0.000000		0.000000		-0.000000		0.000000		0.000000		0.000000		-0.141844		0.000000		0.275422		0.000000		-0.000000		0.000000		21.461053		0.757912		0.431085		0.374246		1.309564		1.917181		-0.111315		-0.003932		-0.002237		-7.198624		228.513143		446.460064		-0.265941		1.309866		1.925168		-0.348346		11.057893		21.604490		
0.169551		-0.000000		0.000000		0.000000		0.132236		0.000000		0.267992		0.000000		0.000000		-0.000000		0.000000		0.000000		0.000000		-0.141844		0.000000		0.275422		0.000000		-0.000000		0.000000		21.455154		1.137898		1.096321		0.374190		1.309539		1.917102		-0.114175		-0.006055		-0.005834		-7.575253		224.037400		443.437986		-0.265944		1.309853		1.925127		-0.367692		10.874443		21.523825		
0.171722		-0.000000		0.000000		0.000000		0.132236		0.000000		0.267992		0.000000		0.000000		-0.000000		0.000000		0.000000		0.000000		-0.141844		0.000000		0.275422		0.000000		-0.000000		0.000000		21.528463		1.412235		1.475356		0.374140		1.309528		1.917033		-0.114626		-0.007519		-0.007855		-7.922458		219.567056		440.142780		-0.265946		1.309841		1.925090		-0.385636		10.687691		21.424489		
